<svg width="96.9" height="84.1" viewBox="0 0 96.9 84.1" xmlns="http://www.w3.org/2000/svg"><g id="svgGroup" stroke-linecap="round" fill-rule="evenodd" font-size="9pt" stroke="#000" stroke-width="0.25mm" fill="#000" style="stroke:#000;stroke-width:0.25mm;fill:#000"><path d="M 44.75 83.758 A 5.04 5.04 0 0 0 46.5 84.1 Q 47.525 84.1 48.653 83.628 A 9.188 9.188 0 0 0 49.95 82.95 A 6.577 6.577 0 0 0 51.106 82.053 A 4.509 4.509 0 0 0 52.3 80.1 A 120.87 120.87 0 0 1 46.685 75.446 A 90.947 90.947 0 0 1 41.25 70.25 A 100.972 100.972 0 0 1 37.932 66.62 A 83.266 83.266 0 0 1 33.15 60.6 Q 29.7 55.8 26.7 50.9 Q 23.7 46 20.5 40.9 Q 22.7 40.8 26.25 40.5 Q 29.8 40.2 34.1 39.4 Q 38.4 38.6 42.6 37.1 Q 46.8 35.6 50.35 33.2 A 22.167 22.167 0 0 0 50.406 33.163 A 19.418 19.418 0 0 0 56.05 27.35 A 13.706 13.706 0 0 0 57.759 23.173 A 17.947 17.947 0 0 0 58.2 19.1 A 19.104 19.104 0 0 0 57.966 16.054 A 14.434 14.434 0 0 0 55.8 10.35 A 18.161 18.161 0 0 0 55.011 9.242 A 18.84 18.84 0 0 0 49.4 4.4 Q 45.4 2.1 40.7 1.05 A 46.691 46.691 0 0 0 38.659 0.641 A 40.462 40.462 0 0 0 31.6 0 Q 26.9 0 22.5 0.95 A 74.024 74.024 0 0 0 19.049 1.78 A 59.116 59.116 0 0 0 14.45 3.2 A 295.793 295.793 0 0 0 13.441 3.562 Q 11.951 4.098 10.613 4.599 A 174.203 174.203 0 0 0 8 5.6 A 1.139 1.139 0 0 0 8.016 5.782 Q 8.103 6.325 8.7 7.05 Q 9.4 7.9 10.35 8.5 A 10.942 10.942 0 0 0 10.485 8.584 Q 11.102 8.961 11.467 9.063 A 0.888 0.888 0 0 0 11.7 9.1 A 1.227 1.227 0 0 0 11.866 9.088 Q 12.425 9.011 13.527 8.459 A 21.756 21.756 0 0 0 14.3 8.05 Q 15.725 7.263 17.769 6.306 A 106.711 106.711 0 0 1 19.2 5.65 A 25.243 25.243 0 0 1 22.56 4.431 A 34.706 34.706 0 0 1 26.2 3.6 Q 22.9 11.1 20.25 17.4 Q 17.6 23.7 15.35 29.6 Q 13.1 35.5 10.95 41.5 Q 8.8 47.5 6.5 54.4 L 1.4 69.7 A 63.723 63.723 0 0 1 1.194 70.406 A 72.167 72.167 0 0 1 0.5 72.6 Q 0 74.1 0 75.2 Q 0 77.7 2.4 79.25 A 11.038 11.038 0 0 0 2.551 79.346 A 9.205 9.205 0 0 0 7.5 80.8 Q 9.8 73.1 12.3 64 Q 14.8 54.9 17.5 45.5 Q 19.4 49.6 22.25 54.8 Q 25.1 60 28.3 65.1 A 135.417 135.417 0 0 0 30.31 68.21 A 115.69 115.69 0 0 0 34.8 74.5 A 68.671 68.671 0 0 0 35.759 75.721 Q 37.131 77.427 38.459 78.842 A 36.94 36.94 0 0 0 41.15 81.45 A 20.091 20.091 0 0 0 41.672 81.888 Q 43.326 83.23 44.75 83.758 Z M 74.9 52.3 L 74.9 47.9 A 20.17 20.17 0 0 1 75.106 45.089 A 25.84 25.84 0 0 1 75.55 42.75 A 13.276 13.276 0 0 1 76.351 40.425 Q 76.841 39.322 77.558 38.142 A 27.705 27.705 0 0 1 78.5 36.7 Q 78.654 38.461 78.953 41.394 A 779.642 779.642 0 0 0 79.15 43.3 Q 79.6 47.6 79.7 52.3 A 187.471 187.471 0 0 1 88.999 52.707 A 171.806 171.806 0 0 1 89.6 52.75 Q 94.4 53.1 96.9 53.3 Q 93.7 55.5 90.5 56.25 A 35.775 35.775 0 0 1 88.419 56.677 Q 87.379 56.856 86.472 56.936 A 15.695 15.695 0 0 1 85.1 57 L 79.8 57 Q 79.7 61.1 79.25 64.55 A 22.184 22.184 0 0 1 78.807 66.962 Q 78.522 68.126 78.122 69.1 A 11.121 11.121 0 0 1 77.6 70.2 Q 76.4 72.4 74.1 72.8 A 64.314 64.314 0 0 0 74.492 70.119 Q 74.648 68.856 74.729 67.722 A 38.038 38.038 0 0 0 74.75 67.4 Q 74.9 65 74.95 62.5 Q 75 60 75 57 Q 72 57 69.55 57.05 Q 67.1 57.1 64.55 57.35 A 90.456 90.456 0 0 0 62.176 57.617 Q 60.557 57.819 58.7 58.1 A 6.033 6.033 0 0 1 61.176 54.996 Q 62.434 54.16 64.25 53.65 A 32.903 32.903 0 0 1 68.479 52.777 Q 71.413 52.356 74.9 52.3 Z M 19.6 38.3 Q 25.1 38 30.6 36.55 A 43.729 43.729 0 0 0 37.69 34.036 A 38.129 38.129 0 0 0 40.6 32.55 A 22.961 22.961 0 0 0 45.522 28.855 A 20.12 20.12 0 0 0 47.8 26.15 A 14.895 14.895 0 0 0 50.421 18.848 A 18.785 18.785 0 0 0 50.5 17.1 Q 50.5 12.941 48.9 10.168 A 9.502 9.502 0 0 0 47.9 8.75 A 14.092 14.092 0 0 0 41.832 4.614 A 17.027 17.027 0 0 0 41.2 4.4 Q 37.1 3.1 32.6 3 Q 29.679 8.844 26.831 16.497 A 200.168 200.168 0 0 0 25.9 19.05 A 391.157 391.157 0 0 0 20.355 35.812 A 428.617 428.617 0 0 0 19.6 38.3 Z" vector-effect="non-scaling-stroke"/></g></svg>