<svg width="293.8" height="100" viewBox="0 0 293.8 100" xmlns="http://www.w3.org/2000/svg">
	<g id="svgGroup" stroke-linecap="round" fill-rule="evenodd" font-size="9pt" stroke="#000" stroke-width="0.25mm" fill="#000" style="stroke:#000;stroke-width:0.25mm;fill:#000">
		<path d="M 44.75 83.758 A 5.04 5.04 0 0 0 46.5 84.1 Q 47.525 84.1 48.653 83.628 A 9.188 9.188 0 0 0 49.95 82.95 A 6.577 6.577 0 0 0 51.106 82.053 A 4.509 4.509 0 0 0 52.3 80.1 A 120.87 120.87 0 0 1 46.685 75.446 A 90.947 90.947 0 0 1 41.25 70.25 A 100.972 100.972 0 0 1 37.932 66.62 A 83.266 83.266 0 0 1 33.15 60.6 Q 29.7 55.8 26.7 50.9 Q 23.7 46 20.5 40.9 Q 22.7 40.8 26.25 40.5 Q 29.8 40.2 34.1 39.4 Q 38.4 38.6 42.6 37.1 Q 46.8 35.6 50.35 33.2 A 22.167 22.167 0 0 0 50.406 33.163 A 19.418 19.418 0 0 0 56.05 27.35 A 13.706 13.706 0 0 0 57.759 23.173 A 17.947 17.947 0 0 0 58.2 19.1 A 19.104 19.104 0 0 0 57.966 16.054 A 14.434 14.434 0 0 0 55.8 10.35 A 18.161 18.161 0 0 0 55.011 9.242 A 18.84 18.84 0 0 0 49.4 4.4 Q 45.4 2.1 40.7 1.05 A 46.691 46.691 0 0 0 38.659 0.641 A 40.462 40.462 0 0 0 31.6 0 Q 26.9 0 22.5 0.95 A 74.024 74.024 0 0 0 19.049 1.78 A 59.116 59.116 0 0 0 14.45 3.2 A 295.793 295.793 0 0 0 13.441 3.562 Q 11.951 4.098 10.613 4.599 A 174.203 174.203 0 0 0 8 5.6 A 1.139 1.139 0 0 0 8.016 5.782 Q 8.103 6.325 8.7 7.05 Q 9.4 7.9 10.35 8.5 A 10.942 10.942 0 0 0 10.485 8.584 Q 11.102 8.961 11.467 9.063 A 0.888 0.888 0 0 0 11.7 9.1 A 1.227 1.227 0 0 0 11.866 9.088 Q 12.425 9.011 13.527 8.459 A 21.756 21.756 0 0 0 14.3 8.05 Q 15.725 7.263 17.769 6.306 A 106.711 106.711 0 0 1 19.2 5.65 A 25.243 25.243 0 0 1 22.56 4.431 A 34.706 34.706 0 0 1 26.2 3.6 Q 22.9 11.1 20.25 17.4 Q 17.6 23.7 15.35 29.6 Q 13.1 35.5 10.95 41.5 Q 8.8 47.5 6.5 54.4 L 1.4 69.7 A 63.723 63.723 0 0 1 1.194 70.406 A 72.167 72.167 0 0 1 0.5 72.6 Q 0 74.1 0 75.2 Q 0 77.7 2.4 79.25 A 11.038 11.038 0 0 0 2.551 79.346 A 9.205 9.205 0 0 0 7.5 80.8 Q 9.8 73.1 12.3 64 Q 14.8 54.9 17.5 45.5 Q 19.4 49.6 22.25 54.8 Q 25.1 60 28.3 65.1 A 135.417 135.417 0 0 0 30.31 68.21 A 115.69 115.69 0 0 0 34.8 74.5 A 68.671 68.671 0 0 0 35.759 75.721 Q 37.131 77.427 38.459 78.842 A 36.94 36.94 0 0 0 41.15 81.45 A 20.091 20.091 0 0 0 41.672 81.888 Q 43.326 83.23 44.75 83.758 Z M 139.836 99.831 A 2.391 2.391 0 0 0 140.7 100 A 2.082 2.082 0 0 0 141.592 99.8 A 2.685 2.685 0 0 0 142.2 99.4 Q 143.6 98.2 145.05 94.4 A 58.21 58.21 0 0 0 145.744 92.476 Q 146.847 89.248 147.95 84.95 Q 149.4 79.3 151.05 72.65 Q 152.7 66 154.6 59.1 A 23.853 23.853 0 0 1 155.066 58.083 Q 155.899 56.367 157.2 54.3 Q 158.9 51.6 161.1 49.15 A 26.47 26.47 0 0 1 161.938 48.26 A 23.141 23.141 0 0 1 165.85 45.05 A 11.527 11.527 0 0 1 167.449 44.18 A 8.713 8.713 0 0 1 171 43.4 A 6.434 6.434 0 0 1 172.074 43.486 A 4.396 4.396 0 0 1 175.25 45.65 Q 176.6 47.9 176.6 50.9 A 16.858 16.858 0 0 1 176.445 53.178 A 18.857 18.857 0 0 1 175.05 58.1 A 22.236 22.236 0 0 1 174.31 59.651 A 24.324 24.324 0 0 1 170.65 64.8 Q 167.8 67.9 164.05 69.85 Q 160.3 71.8 155.8 71.8 A 9.683 9.683 0 0 0 155.042 71.829 A 7.573 7.573 0 0 0 154.15 71.95 A 1.842 1.842 0 0 0 154.063 71.97 Q 153.648 72.074 153.493 72.335 A 0.702 0.702 0 0 0 153.4 72.7 Q 153.4 73.338 154.543 73.943 A 7.884 7.884 0 0 0 155.2 74.25 A 8.051 8.051 0 0 0 156.427 74.642 Q 157.927 75 160 75 Q 165.3 75 169.75 72.55 Q 174.2 70.1 177.35 66.25 Q 180.5 62.4 182.25 58.05 A 26.255 26.255 0 0 0 183.416 54.46 A 19.695 19.695 0 0 0 184 49.8 A 15.704 15.704 0 0 0 183.746 46.907 A 11.04 11.04 0 0 0 180.95 41.25 A 9.938 9.938 0 0 0 176.965 38.622 A 11.555 11.555 0 0 0 173.1 38 Q 169.5 38 166.4 39.9 Q 163.3 41.8 160.8 44.65 Q 158.3 47.5 156.5 50.5 A 210.513 210.513 0 0 0 156.966 48.165 Q 157.182 47.049 157.364 46.035 A 112.295 112.295 0 0 0 157.75 43.75 Q 158.091 41.59 158.174 40.436 A 9.089 9.089 0 0 0 158.2 39.8 A 5.2 5.2 0 0 0 157.886 38.003 A 5.918 5.918 0 0 0 156.9 36.3 A 3.801 3.801 0 0 0 155.769 35.362 Q 154.566 34.7 152.7 34.7 Q 151.2 34.7 150.9 35.2 A 2.102 2.102 0 0 0 150.802 35.386 Q 150.567 35.885 150.4 36.8 A 684.184 684.184 0 0 1 149.66 42.925 Q 149.295 45.831 148.94 48.425 A 334.791 334.791 0 0 1 148.1 54.2 Q 147 61.3 145.9 66.55 A 184.902 184.902 0 0 1 145.054 70.389 A 152.713 152.713 0 0 1 143.55 76.35 Q 142.3 80.9 140.7 85.75 A 1444.727 1444.727 0 0 0 139.652 88.943 Q 139.103 90.619 138.505 92.457 A 2562.003 2562.003 0 0 0 137 97.1 A 0.39 0.39 0 0 0 137.01 97.182 Q 137.06 97.414 137.374 97.823 A 6.788 6.788 0 0 0 137.6 98.1 A 7.06 7.06 0 0 0 138.086 98.611 A 8.446 8.446 0 0 0 139.05 99.4 A 4.469 4.469 0 0 0 139.199 99.501 Q 139.522 99.709 139.836 99.831 Z M 101.3 55.2 L 102.7 56.3 A 38.3 38.3 0 0 1 97.9 64.861 A 35.503 35.503 0 0 1 97.05 65.95 A 33.097 33.097 0 0 1 93.36 69.841 A 25.59 25.59 0 0 1 89.65 72.6 Q 85.92 74.867 82.413 74.993 A 11.479 11.479 0 0 1 82 75 A 10.096 10.096 0 0 1 80.377 74.878 Q 79.503 74.735 78.802 74.426 A 4.63 4.63 0 0 1 77.7 73.75 A 6.243 6.243 0 0 1 75.704 70.686 A 7.598 7.598 0 0 1 75.65 70.5 Q 75.1 68.5 75.1 66.4 Q 75.1 65.7 75.15 64.9 A 20.408 20.408 0 0 1 75.232 63.939 A 16.896 16.896 0 0 1 75.3 63.4 Q 73.6 66.3 71.55 68.95 Q 69.5 71.6 67.25 73.3 A 8.797 8.797 0 0 1 65.086 74.52 A 7.196 7.196 0 0 1 62.5 75 A 6.263 6.263 0 0 1 57.653 72.793 A 9.126 9.126 0 0 1 56.95 71.9 Q 54.8 68.8 54.8 64.7 A 20.483 20.483 0 0 1 54.957 62.26 Q 55.1 61.07 55.375 59.743 A 40.732 40.732 0 0 1 55.75 58.1 Q 56.7 54.3 58.1 50.65 A 44.148 44.148 0 0 1 59.172 48.088 Q 59.769 46.784 60.391 45.689 A 22.627 22.627 0 0 1 61.05 44.6 A 12.504 12.504 0 0 1 61.7 43.68 Q 62.824 42.243 63.745 42.201 A 1.213 1.213 0 0 1 63.8 42.2 A 2.068 2.068 0 0 1 64.246 42.256 Q 64.704 42.358 65.339 42.649 A 11.965 11.965 0 0 1 65.85 42.9 A 9.645 9.645 0 0 1 67.78 44.206 A 8.786 8.786 0 0 1 68.2 44.6 Q 67.286 45.931 66.06 48.506 A 72.983 72.983 0 0 0 65.55 49.6 A 60.47 60.47 0 0 0 63.263 55.422 A 67.938 67.938 0 0 0 62.8 56.85 A 28.975 28.975 0 0 0 61.959 60.206 Q 61.634 61.968 61.604 63.57 A 17.337 17.337 0 0 0 61.6 63.9 A 6.151 6.151 0 0 0 61.608 64.169 Q 61.627 64.606 61.701 65.418 A 82.938 82.938 0 0 0 61.75 65.95 Q 61.9 67.5 62.55 68.8 Q 63.098 69.896 64.321 70.068 A 3.438 3.438 0 0 0 64.8 70.1 A 3.743 3.743 0 0 0 66.231 69.795 Q 66.797 69.561 67.393 69.149 A 10.184 10.184 0 0 0 68.5 68.25 A 22.29 22.29 0 0 0 70.26 66.411 Q 71.113 65.419 71.975 64.221 A 41.049 41.049 0 0 0 72.55 63.4 A 72.066 72.066 0 0 0 75.541 58.619 A 82.729 82.729 0 0 0 76.5 56.9 Q 78.4 53.4 80 50.2 Q 81.581 47.038 82.577 44.853 A 90.505 90.505 0 0 0 82.6 44.8 A 9.924 9.924 0 0 1 83.154 44.887 Q 83.728 44.992 84.495 45.185 A 35.141 35.141 0 0 1 84.75 45.25 A 10.728 10.728 0 0 1 86.174 45.723 A 8.661 8.661 0 0 1 87.15 46.2 Q 88.2 46.8 88.2 47.9 Q 88.2 48.2 87.25 50.4 A 402.327 402.327 0 0 0 86.489 52.177 Q 86.151 52.97 85.779 53.851 A 778.312 778.312 0 0 0 85 55.7 Q 83.7 58.8 82.75 62 A 27.305 27.305 0 0 0 82.172 64.288 Q 81.94 65.42 81.853 66.431 A 13.645 13.645 0 0 0 81.8 67.6 A 6.32 6.32 0 0 0 81.924 68.877 A 4.746 4.746 0 0 0 82.4 70.2 Q 82.945 71.199 84.398 71.291 A 4.807 4.807 0 0 0 84.7 71.3 A 5.946 5.946 0 0 0 86.32 71.055 Q 87.761 70.646 89.508 69.554 A 20.995 20.995 0 0 0 89.75 69.4 A 21.655 21.655 0 0 0 92.313 67.444 Q 94.032 65.932 95.8 63.85 A 36.878 36.878 0 0 0 99.402 58.76 A 46.209 46.209 0 0 0 101.3 55.2 Z M 257.7 55.2 L 259.1 56.3 A 38.3 38.3 0 0 1 254.3 64.861 A 35.503 35.503 0 0 1 253.45 65.95 A 33.097 33.097 0 0 1 249.76 69.841 A 25.59 25.59 0 0 1 246.05 72.6 Q 242.32 74.867 238.813 74.993 A 11.479 11.479 0 0 1 238.4 75 A 10.096 10.096 0 0 1 236.777 74.878 Q 235.903 74.735 235.202 74.426 A 4.63 4.63 0 0 1 234.1 73.75 A 6.243 6.243 0 0 1 232.104 70.686 A 7.598 7.598 0 0 1 232.05 70.5 Q 231.5 68.5 231.5 66.4 Q 231.5 65.7 231.55 64.9 A 20.408 20.408 0 0 1 231.632 63.939 A 16.896 16.896 0 0 1 231.7 63.4 Q 230 66.3 227.95 68.95 Q 225.9 71.6 223.65 73.3 A 8.797 8.797 0 0 1 221.486 74.52 A 7.196 7.196 0 0 1 218.9 75 A 6.263 6.263 0 0 1 214.053 72.793 A 9.126 9.126 0 0 1 213.35 71.9 Q 211.2 68.8 211.2 64.7 A 20.483 20.483 0 0 1 211.357 62.26 Q 211.5 61.07 211.775 59.743 A 40.732 40.732 0 0 1 212.15 58.1 Q 213.1 54.3 214.5 50.65 A 44.148 44.148 0 0 1 215.572 48.088 Q 216.169 46.784 216.791 45.689 A 22.627 22.627 0 0 1 217.45 44.6 A 12.504 12.504 0 0 1 218.1 43.68 Q 219.224 42.243 220.145 42.201 A 1.213 1.213 0 0 1 220.2 42.2 A 2.068 2.068 0 0 1 220.646 42.256 Q 221.104 42.358 221.739 42.649 A 11.965 11.965 0 0 1 222.25 42.9 A 9.645 9.645 0 0 1 224.18 44.206 A 8.786 8.786 0 0 1 224.6 44.6 Q 223.686 45.931 222.46 48.506 A 72.983 72.983 0 0 0 221.95 49.6 A 60.47 60.47 0 0 0 219.663 55.422 A 67.938 67.938 0 0 0 219.2 56.85 A 28.975 28.975 0 0 0 218.359 60.206 Q 218.034 61.968 218.004 63.57 A 17.337 17.337 0 0 0 218 63.9 A 6.151 6.151 0 0 0 218.008 64.169 Q 218.027 64.606 218.101 65.418 A 82.938 82.938 0 0 0 218.15 65.95 Q 218.3 67.5 218.95 68.8 Q 219.498 69.896 220.721 70.068 A 3.438 3.438 0 0 0 221.2 70.1 A 3.743 3.743 0 0 0 222.631 69.795 Q 223.197 69.561 223.793 69.149 A 10.184 10.184 0 0 0 224.9 68.25 A 22.29 22.29 0 0 0 226.66 66.411 Q 227.513 65.419 228.375 64.221 A 41.049 41.049 0 0 0 228.95 63.4 A 72.066 72.066 0 0 0 231.941 58.619 A 82.729 82.729 0 0 0 232.9 56.9 Q 234.8 53.4 236.4 50.2 Q 237.981 47.038 238.977 44.853 A 90.505 90.505 0 0 0 239 44.8 A 9.924 9.924 0 0 1 239.554 44.887 Q 240.128 44.992 240.895 45.185 A 35.141 35.141 0 0 1 241.15 45.25 A 10.728 10.728 0 0 1 242.574 45.723 A 8.661 8.661 0 0 1 243.55 46.2 Q 244.6 46.8 244.6 47.9 Q 244.6 48.2 243.65 50.4 A 402.327 402.327 0 0 0 242.889 52.177 Q 242.551 52.97 242.179 53.851 A 778.312 778.312 0 0 0 241.4 55.7 Q 240.1 58.8 239.15 62 A 27.305 27.305 0 0 0 238.572 64.288 Q 238.34 65.42 238.253 66.431 A 13.645 13.645 0 0 0 238.2 67.6 A 6.32 6.32 0 0 0 238.324 68.877 A 4.746 4.746 0 0 0 238.8 70.2 Q 239.345 71.199 240.798 71.291 A 4.807 4.807 0 0 0 241.1 71.3 A 5.946 5.946 0 0 0 242.72 71.055 Q 244.161 70.646 245.908 69.554 A 20.995 20.995 0 0 0 246.15 69.4 A 21.655 21.655 0 0 0 248.713 67.444 Q 250.432 65.932 252.2 63.85 A 36.878 36.878 0 0 0 255.802 58.76 A 46.209 46.209 0 0 0 257.7 55.2 Z M 213.6 54.9 L 215.7 56.1 A 65.601 65.601 0 0 1 212.157 62.546 Q 210.203 65.648 208.084 68.09 A 34.995 34.995 0 0 1 206.4 69.9 A 20.745 20.745 0 0 1 202.823 72.804 Q 199.341 75 195.6 75 A 10.675 10.675 0 0 1 193.23 74.755 Q 191.683 74.402 190.586 73.543 A 5.906 5.906 0 0 1 189.15 71.9 Q 187.3 68.8 187.3 64.5 A 32.957 32.957 0 0 1 187.598 60.238 Q 187.869 58.164 188.388 55.855 A 65.397 65.397 0 0 1 189.1 53 A 113.273 113.273 0 0 1 191.8 44.496 A 138.621 138.621 0 0 1 193.85 39.15 Q 196.8 31.9 200.35 24.95 A 181.339 181.339 0 0 1 204.344 17.543 A 143.277 143.277 0 0 1 207.45 12.35 A 92.152 92.152 0 0 1 209.99 8.511 Q 212.12 5.47 214.05 3.35 A 24.015 24.015 0 0 1 215.325 2.045 Q 217.339 0.146 218.696 0.011 A 2.058 2.058 0 0 1 218.9 0 Q 220.049 0 220.877 1.191 A 4.629 4.629 0 0 1 220.95 1.3 A 9.442 9.442 0 0 1 221.755 2.837 A 13.007 13.007 0 0 1 222.3 4.45 A 15.967 15.967 0 0 1 222.642 6.002 Q 222.776 6.807 222.797 7.534 A 9.283 9.283 0 0 1 222.8 7.8 A 14.488 14.488 0 0 1 222.655 9.75 Q 222.377 11.783 221.568 14.465 A 50.358 50.358 0 0 1 221.45 14.85 A 63.328 63.328 0 0 1 219.943 19.126 Q 218.952 21.661 217.65 24.45 A 102.319 102.319 0 0 1 213.567 32.269 A 118.799 118.799 0 0 1 211.85 35.15 Q 208.5 40.6 204.5 45.55 Q 200.5 50.5 195.9 54.1 Q 195.5 56.6 195.15 59.1 Q 194.8 61.6 194.8 63.7 A 18.945 18.945 0 0 0 194.891 65.627 Q 195.089 67.556 195.718 68.755 A 4.673 4.673 0 0 0 195.95 69.15 Q 197.084 70.875 199.042 70.9 A 4.528 4.528 0 0 0 199.1 70.9 Q 201.7 70.9 204.35 68.5 A 27.195 27.195 0 0 0 207.096 65.597 A 36.833 36.833 0 0 0 209.4 62.45 Q 211.8 58.8 213.6 54.9 Z M 269.6 40.7 L 269.6 39.6 Q 269.6 35.7 270.9 34.1 A 5.123 5.123 0 0 1 271.819 33.206 A 3.422 3.422 0 0 1 273.9 32.5 A 3.472 3.472 0 0 1 274.486 32.546 Q 275.145 32.659 275.5 33.05 A 1.945 1.945 0 0 1 275.879 33.647 A 1.768 1.768 0 0 1 276 34.3 A 2.813 2.813 0 0 1 275.978 34.632 Q 275.926 35.067 275.75 35.7 Q 275.582 36.305 275.527 37.18 A 14.689 14.689 0 0 0 275.5 38.1 A 16.411 16.411 0 0 0 275.798 41.117 Q 276.146 42.975 276.9 45.05 Q 278.3 48.9 279.7 53.2 Q 281.1 57.5 281.1 62 Q 281.1 63.3 281 64.35 Q 280.9 65.4 280.6 66.4 A 12.635 12.635 0 0 0 284.705 64.703 A 16.836 16.836 0 0 0 286.9 63.05 A 19.046 19.046 0 0 0 289.122 60.69 Q 290.151 59.409 291.154 57.8 A 43.429 43.429 0 0 0 292.7 55.1 L 293.8 56 A 24.723 24.723 0 0 1 291.845 60.446 A 17.733 17.733 0 0 1 288.25 64.95 Q 284.6 68.2 279.9 68.9 A 12.667 12.667 0 0 1 277.881 72.453 A 10.941 10.941 0 0 1 274.7 75.1 A 16.007 16.007 0 0 1 267.985 77.051 A 19.357 19.357 0 0 1 266.6 77.1 A 19.12 19.12 0 0 1 263.462 76.858 Q 261.727 76.569 260.321 75.935 A 9.794 9.794 0 0 1 258.75 75.05 A 11.984 11.984 0 0 1 255.79 72.167 A 10.947 10.947 0 0 1 254.55 69.9 Q 253.3 66.8 253.3 63.6 A 16.957 16.957 0 0 1 253.378 61.917 Q 253.55 60.201 254.1 59.1 A 7.452 7.452 0 0 1 254.847 57.893 Q 255.389 57.185 256.057 56.729 A 4.698 4.698 0 0 1 256.1 56.7 A 14.202 14.202 0 0 1 257.122 56.077 Q 257.64 55.791 258.127 55.589 A 8.201 8.201 0 0 1 258.35 55.5 Q 259.4 55.1 259.8 54.7 A 72.465 72.465 0 0 0 263.794 50.013 A 83.699 83.699 0 0 0 265.1 48.3 Q 267.7 44.8 269.6 40.7 Z M 125.6 55.1 L 126.9 56.5 Q 124.035 64.142 119.548 68.768 A 24.591 24.591 0 0 1 118.15 70.1 Q 112.7 74.9 106.6 74.9 A 10.972 10.972 0 0 1 104.125 74.639 Q 102.44 74.248 101.233 73.275 A 6.462 6.462 0 0 1 100.3 72.35 A 9.15 9.15 0 0 1 98.274 67.447 A 11.992 11.992 0 0 1 98.2 66.1 Q 98.2 64.555 98.562 62.468 A 41.57 41.57 0 0 1 99 60.3 Q 99.8 56.8 101.25 52.95 A 53.597 53.597 0 0 1 104.482 45.913 A 49.635 49.635 0 0 1 104.6 45.7 A 31.088 31.088 0 0 1 106.311 42.964 Q 107.264 41.61 108.274 40.538 A 17.979 17.979 0 0 1 108.65 40.15 Q 110.8 38 112.9 38 A 3.387 3.387 0 0 1 113.874 38.134 A 2.726 2.726 0 0 1 114.9 38.7 A 2.271 2.271 0 0 1 115.626 39.964 A 3.453 3.453 0 0 1 115.7 40.7 A 3.303 3.303 0 0 1 115.591 41.486 Q 115.388 42.304 114.807 43.451 A 22.617 22.617 0 0 1 114.15 44.65 Q 112.6 47.3 110.5 50.7 Q 108.4 54.1 106.85 57.8 Q 105.3 61.5 105.3 64.9 A 14.25 14.25 0 0 0 105.366 66.326 Q 105.515 67.798 105.999 68.655 A 2.599 2.599 0 0 0 106.5 69.3 Q 107.7 70.4 110 70.4 Q 112.54 70.4 115.386 68.503 A 20.184 20.184 0 0 0 117.35 67 Q 120.91 63.936 124.754 56.731 A 84.681 84.681 0 0 0 125.6 55.1 Z M 19.6 38.3 Q 25.1 38 30.6 36.55 A 43.729 43.729 0 0 0 37.69 34.036 A 38.129 38.129 0 0 0 40.6 32.55 A 22.961 22.961 0 0 0 45.522 28.855 A 20.12 20.12 0 0 0 47.8 26.15 A 14.895 14.895 0 0 0 50.421 18.848 A 18.785 18.785 0 0 0 50.5 17.1 Q 50.5 12.941 48.9 10.168 A 9.502 9.502 0 0 0 47.9 8.75 A 14.092 14.092 0 0 0 41.832 4.614 A 17.027 17.027 0 0 0 41.2 4.4 Q 37.1 3.1 32.6 3 Q 29.679 8.844 26.831 16.497 A 200.168 200.168 0 0 0 25.9 19.05 A 391.157 391.157 0 0 0 20.355 35.812 A 428.617 428.617 0 0 0 19.6 38.3 Z M 197.4 48.8 A 62.569 62.569 0 0 0 202.824 42.389 A 70.541 70.541 0 0 0 204 40.75 Q 207.1 36.3 209.75 31.7 Q 212.4 27.1 214.4 22.75 A 89.895 89.895 0 0 0 215.774 19.614 Q 216.813 17.106 217.5 14.95 Q 218.489 11.851 218.67 9.922 A 9.688 9.688 0 0 0 218.7 9.5 Q 218.7 9.198 218.644 9.039 A 0.405 0.405 0 0 0 218.6 8.95 L 218.5 8.8 Q 217.7 8.8 215.85 11.15 A 42.845 42.845 0 0 0 214.508 12.961 Q 213.158 14.875 211.55 17.5 Q 209.11 21.485 206.521 26.66 A 159.993 159.993 0 0 0 206.5 26.7 A 182.129 182.129 0 0 0 202.104 36.183 A 199.85 199.85 0 0 0 201.5 37.6 A 122.921 122.921 0 0 0 197.949 47.077 A 110.487 110.487 0 0 0 197.4 48.8 Z M 273.3 66.2 A 8.176 8.176 0 0 0 273.471 65.294 A 10.952 10.952 0 0 0 273.55 64.4 Q 273.6 63.4 273.6 62.6 Q 273.5 58 272.4 53.55 Q 271.3 49.1 270.3 44.6 Q 268.3 48 265.85 51.55 A 65.187 65.187 0 0 1 264.062 54.023 Q 262.613 55.925 261.3 57.3 A 14.746 14.746 0 0 0 263.472 60.394 A 20.413 20.413 0 0 0 265.95 62.7 A 18.353 18.353 0 0 0 272.522 65.999 A 21.434 21.434 0 0 0 273.3 66.2 Z M 266.2 73 A 6.728 6.728 0 0 0 268.309 72.647 A 9.02 9.02 0 0 0 269.7 72.05 A 5.938 5.938 0 0 0 271.58 70.46 Q 272.114 69.788 272.544 68.917 A 10.562 10.562 0 0 0 272.6 68.8 Q 268.4 67.9 265.15 65.55 A 27.884 27.884 0 0 1 262.666 63.541 Q 261.141 62.145 260.1 60.7 A 1.692 1.692 0 0 0 258.818 61.771 Q 258.5 62.498 258.5 63.7 Q 258.5 67.1 260.45 70.05 A 6.252 6.252 0 0 0 264.949 72.913 A 8.683 8.683 0 0 0 266.2 73 Z M 116.264 29.125 A 6.552 6.552 0 0 0 118.5 29.5 A 6.894 6.894 0 0 0 121.15 28.978 A 8.189 8.189 0 0 0 123.3 27.65 Q 125.5 25.8 125.5 23.7 A 5.827 5.827 0 0 0 125.48 23.199 Q 125.349 21.69 124.4 21 A 3.705 3.705 0 0 0 124.294 20.926 Q 123.66 20.497 122.836 20.322 A 5.929 5.929 0 0 0 121.6 20.2 A 8.826 8.826 0 0 0 118.979 20.6 A 10.611 10.611 0 0 0 116.35 21.85 A 9.002 9.002 0 0 0 116.252 21.915 Q 113.8 23.547 113.8 25.9 A 4.234 4.234 0 0 0 113.86 26.629 A 2.79 2.79 0 0 0 115.25 28.65 A 6.061 6.061 0 0 0 116.264 29.125 Z M 128.155 72.899 A 6.054 6.054 0 0 0 129.3 73 A 5.131 5.131 0 0 0 129.313 73 A 4.049 4.049 0 0 0 132.05 72 Q 133.2 71 133.85 69.7 Q 134.267 68.867 134.417 68.199 A 3.21 3.21 0 0 0 134.5 67.5 A 4.68 4.68 0 0 0 134.479 67.042 Q 134.438 66.625 134.319 66.292 A 1.876 1.876 0 0 0 133.55 65.3 Q 132.6 64.7 131.5 64.7 Q 130.2 64.7 128.75 65.45 A 9.312 9.312 0 0 0 128.483 65.594 A 8.103 8.103 0 0 0 126.3 67.35 A 5.786 5.786 0 0 0 126.012 67.708 Q 125.3 68.672 125.3 69.6 A 3.129 3.129 0 0 0 125.626 71.002 A 3.842 3.842 0 0 0 126.3 71.95 A 2.958 2.958 0 0 0 127.009 72.496 Q 127.509 72.774 128.155 72.899 Z" vector-effect="non-scaling-stroke"/>
	</g>
</svg>